<?xml version="1.0" encoding="utf-8"?>
<svg viewBox="0 0 198 60" xmlns="http://www.w3.org/2000/svg">
    <g fill="none" fill-rule="evenodd">
        <path d="M65.315 47.116v-13.43h3.355v10.84h5.785v2.59h-9.14zM80.39 42.2h3.955l-1.88-5.107-2.074 5.107zm-5.62 4.916l5.85-13.43h3.87l5.225 13.43H86.16l-.96-2.613h-5.78l-1.072 2.613H74.77zm16.17-1.065v-2.987c1.013.627 1.87 1.068 2.56 1.32a6.035 6.035 0 0 0 2.015.368c.66 0 1.157-.097 1.498-.297a.986.986 0 0 0 .51-.902c0-.32-.104-.577-.32-.77-.21-.194-.707-.427-1.477-.695-1.91-.672-3.226-1.355-3.943-2.058-.72-.704-1.08-1.597-1.08-2.684 0-1.142.472-2.073 1.403-2.792.934-.717 2.16-1.074 3.663-1.074.756 0 1.518.097 2.287.282.765.182 1.523.454 2.27.815v2.757c-.895-.457-1.71-.797-2.425-1.01-.713-.222-1.365-.325-1.955-.325-.637 0-1.125.092-1.457.278-.337.182-.504.452-.504.795 0 .282.15.543.45.79.295.25.75.48 1.36.71.123.045.32.12.582.218 1.283.474 2.197.88 2.75 1.218.582.358 1.024.82 1.326 1.382.293.562.44 1.223.44 1.973 0 1.242-.468 2.22-1.406 2.934-.936.71-2.232 1.062-3.894 1.062a8.63 8.63 0 0 1-2.41-.333c-.78-.21-1.522-.54-2.243-.972zm12.554-12.364h3.46v13.432h-3.46V33.686zm9.94 13.43V36.183h-4.432v-2.497h12.407v2.497h-4.44v10.933h-3.536zm12.783-4.916h3.955l-1.875-5.107-2.08 5.107zm-5.615 4.916l5.847-13.43h3.865l5.23 13.43h-3.553l-.967-2.613h-5.772l-1.074 2.613H120.6zm21.218 0v-13.43h2.96l4.305 5.408 4.325-5.408h2.96v13.43h-3.3v-8.313l-3.985 4.917-3.95-4.917v8.313h-3.315zm21.61-4.916h3.958l-1.88-5.107-2.08 5.107zm-5.617 4.916l5.85-13.43h3.868l5.228 13.43H169.2l-.96-2.613h-5.774l-1.073 2.613h-3.58zm14.542 1.26c.83-.026 1.377-.206 1.657-.523.285-.32.423-1.026.423-2.115V33.686h3.352v12.168c0 1.883-.315 3.204-.943 3.96-.633.754-1.73 1.153-3.297 1.2l-1.192-2.638zm12.59-6.176h3.96l-1.878-5.107-2.08 5.107zm-5.614 4.916l5.846-13.43h3.872l5.228 13.43h-3.558l-.96-2.613h-5.78l-1.07 2.613h-3.577zM1.502 31.44c5.582-3.385 11.922-5.783 16.804-10.24 2.603-2.466 2.58-8.563 6.71-4.143 2.997 3.25 6.897 6.687 10.62 9.227 1.404.936 2.905 2.238.972 3.83-.758.412-1.696.457-2.35-.143-4.19-2.367-7.607-5.9-11.018-9.252-2.346 5.027-11.06 9.182-15.733 11.78-1.452.772-2.84 1.692-4.3 2.436C.89 36.022-.787 32.632 1.502 31.44" fill="#357261"/>
        <path d="M9.392 49.98c-.46-5.017-2.1-9.873-2.495-14.885 0-1.998 3.336-2.38 3.87-.33.813 6.305 2.448 14.685 2.918 21.028.144.842 9.314-.963 17.078-1.09 2.355.017 4.138-.957 3.39 1.457-.308.64-.724 1.062-1.475 1.156-6.842-.114-14.82 1.21-21.077.035-.858-.02-1.71-.527-1.888-1.494l-.32-5.876M45.083 54.005c-.184 1.02-.26 1.63-1.102 2.214-1.918.843-3.042-.65-2.818-2.56.99-8.09 2.038-16.168 2.94-24.267.35-3.18 4.266-3.195 3.844.578-.87 8.02-1.59 16.06-2.863 24.035" fill="#357261"/>
        <path d="M38.428 26.958c1.534 4.98 3.612 9.802 4.69 14.926.297 1.656-.98 2.71-2.51 2.434-1.512-.586-1.498-1.847-1.868-3.206-3.138-11.08-12.446-29.173.606-37.252C43.896 1.28 50.176-.142 55.16.505c7.46 1.227 9.05 14.905 8.025 20.65-1.285 6.22-5.966 12.032-9.39 17.394-.66.638-4.358 9.672-7.094 6.138-.872-1.672.217-2.428 1.06-3.662 2.735-4.116 5.1-8.472 7.73-12.658 1.402-2.277 3.123-4.81 3.715-7.96.228-1.52.273-3.04.238-4.56-.185-1.55-.396-3.102-.842-4.653-1.09-4.325-1.678-5.39-2.507-5.993-4.647-2.336-12.293.228-16.14 3.05-5.06 4.005-3.225 12.998-1.525 18.706" fill="#78C258"/>
        <path d="M4.928 55.823a1245.776 1245.776 0 0 1 191.437 0c.775.06 1.42.764 1.42 1.7 0 .935-.645 1.76-1.42 1.696-64.19-5.333-128.003-5.24-191.437 0-.778.064-1.417-.762-1.417-1.696 0-.937.64-1.64 1.418-1.7" fill="#357261"/>
    </g>
</svg>
